<?xml version="1.0" encoding="UTF-8"?>
<svg width="498px" height="444px" viewBox="0 0 498 444" version="1.1" xmlns="http://www.w3.org/2000/svg" xmlns:xlink="http://www.w3.org/1999/xlink">
    <title>Group 2</title>
    <defs>
        <linearGradient x1="26.1124086%" y1="53.8828117%" x2="64.690357%" y2="39.1849512%" id="linearGradient-1">
            <stop stop-color="#FFE37C" offset="0%"></stop>
            <stop stop-color="#FCD558" offset="45%"></stop>
            <stop stop-color="#F4B400" offset="100%"></stop>
        </linearGradient>
        <path d="M278.602233,182.566657 C287.436143,202.873103 368.689972,131.264815 355.237024,73.7850097 C315.406068,-96.4661365 10.7475119,83.632634 4.33859651,88.5098433 C-11.0032086,100.190236 27.5327665,89.8039988 30.1804651,93.923191 C32.8199154,98.0415584 6.18621176,111.653699 20.2082917,113.224172 C43.3694686,115.816607 48.0379964,116.530083 56.822417,124.938382 C70.201131,137.734768 92.5869693,123.927143 100.909486,127.459057 C106.914236,130.007777 80.8414152,150.894077 106.790511,146.131519 C114.552145,144.705391 126.569893,154.989349 134.422257,156.47569 C150.811594,159.577869 162.3097,147.484237 168.446422,149.949649 C174.583144,152.41506 165.064626,167.737895 171.234341,171.267335 C177.395808,174.796775 189.82597,157.774794 205.448217,171.125464 C220.699291,184.165998 225.557529,163.169171 232.477838,164.814703 C239.389898,166.46106 240.181733,178.402924 246.937077,181.001957 C254.624476,183.960616 273.743994,171.413329 278.602233,182.566657 Z" id="path-2"></path>
        <linearGradient x1="82.8585198%" y1="33.630145%" x2="23.8056859%" y2="42.9826152%" id="linearGradient-4">
            <stop stop-color="#FFE37C" offset="0%"></stop>
            <stop stop-color="#FCD558" offset="45%"></stop>
            <stop stop-color="#F4B400" offset="100%"></stop>
        </linearGradient>
        <linearGradient x1="4.22080427%" y1="62.9957503%" x2="40.5435287%" y2="14.7950234%" id="linearGradient-5">
            <stop stop-color="#DC1C6E" offset="0%"></stop>
            <stop stop-color="#D11462" offset="46%"></stop>
            <stop stop-color="#B60046" offset="100%"></stop>
        </linearGradient>
        <path d="M150.712615,130.921686 C148.930986,136.323486 144.344941,174.859461 135.774976,204.250566 C130.067164,223.815492 113.323151,245.04987 113.323151,245.04987 C113.323151,245.04987 16.2656128,136.362253 6.11197721,132.204294 C-13.1065206,124.331309 24.4396606,60.9176892 37.0595326,49.4006126 C49.7041494,37.8596159 63.7509742,25.8979569 83.0107135,17.8294871 C106.930732,7.80699924 127.452459,8.869378 142.835505,11.3537606 C151.999347,12.8343273 167.629842,19.6284375 176.900911,16.3868625 C205.745155,6.30498702 265.941119,-3.70347877 267.368072,1.4401501 C268.341369,4.94072112 234.267715,12.1917861 205.662672,25.6785526 C190.221887,32.9560121 183.730489,41.0723219 180.257962,48.174093 C171.935445,65.1886498 162.243714,96.0157802 150.712615,130.921686 Z" id="path-6"></path>
        <linearGradient x1="48.2883886%" y1="22.0642218%" x2="31.5892803%" y2="49.3060802%" id="linearGradient-8">
            <stop stop-color="#E50066" offset="0%"></stop>
            <stop stop-color="#B60046" offset="100%"></stop>
        </linearGradient>
        <linearGradient x1="-11.5120678%" y1="32.7109294%" x2="106.620227%" y2="41.3571733%" id="linearGradient-9">
            <stop stop-color="#B253D5" offset="0%"></stop>
            <stop stop-color="#8D3CB6" offset="47%"></stop>
            <stop stop-color="#2A0063" offset="100%"></stop>
        </linearGradient>
        <path d="M226.398854,198.287058 C227.256675,220.417199 328.974493,183.227344 337.330003,124.790738 C362.083098,-48.2961676 12.8095825,8.78772001 5.06444536,11.0032086 C-13.4694451,16.3101535 26.1965447,20.6355528 27.169842,25.4344034 C28.1348911,30.2324293 -1.62491162,33.2356289 10.8712361,39.794663 C31.5001903,50.6254825 35.5913383,52.9869658 40.7300182,64.0132696 C48.5328933,80.7944 74.407755,76.0640101 80.8826566,82.3805447 C85.5511844,86.9368959 53.6715732,96.9214417 79.5711797,101.911652 C87.3245651,103.405416 94.7810124,117.352437 101.552852,121.58958 C115.698656,130.436687 130.80951,123.348113 135.626507,127.873946 C140.451752,132.399778 126.017258,143.217401 130.479578,148.746224 C134.941899,154.275048 152.700451,142.932835 162.400431,161.046888 C171.877707,178.739454 184.035676,160.94296 189.875459,164.988742 C195.723492,169.035349 192.118992,180.449322 197.472128,185.324057 C203.55936,190.873502 225.928702,186.131564 226.398854,198.287058 Z" id="path-10"></path>
        <linearGradient x1="111.00877%" y1="18.2911427%" x2="-0.253165316%" y2="56.4857004%" id="linearGradient-12">
            <stop stop-color="#B253D5" offset="0%"></stop>
            <stop stop-color="#8D3CB6" offset="47%"></stop>
            <stop stop-color="#2A0063" offset="100%"></stop>
        </linearGradient>
    </defs>
    <g id="Page-1" stroke="none" stroke-width="1" fill="none" fill-rule="evenodd">
        <g id="Group-2">
            <g id="grtrtr">
                <g id="Group">
                    <path d="M278.602233,293.918468 C287.436143,314.224914 368.689972,242.616626 355.237024,185.136821 C315.406068,14.8856751 10.7475119,194.984446 4.33859651,199.861655 C-11.0032086,211.542048 27.5327665,201.15581 30.1804651,205.275003 C32.8199154,209.39337 6.18621176,223.00551 20.2082917,224.575983 C43.3694686,227.168418 48.0379964,227.881895 56.822417,236.290194 C70.201131,249.086579 92.5869693,235.278954 100.909486,238.810869 C106.914236,241.359588 80.8414152,262.245889 106.790511,257.483331 C114.552145,256.057203 126.569893,266.341161 134.422257,267.827501 C150.811594,270.92968 162.3097,258.836049 168.446422,261.30146 C174.583144,263.766872 165.064626,279.089706 171.234341,282.619146 C177.395808,286.148586 189.82597,269.126606 205.448217,282.477276 C220.699291,295.51781 225.557529,274.520983 232.477838,276.166515 C239.389898,277.812872 240.181733,289.754735 246.937077,292.353769 C254.624476,295.312428 273.743994,282.765141 278.602233,293.918468 Z" id="Path" fill="url(#linearGradient-1)"></path>
                    <g id="Clipped" transform="translate(0.000000, 111.351812)">
                        <mask id="mask-3" fill="white">
                            <use xlink:href="#path-2"></use>
                        </mask>
                        <g id="Path"></g>
                        <path d="M275.880299,260.132679 C282.883091,277.65368 193.224262,276.251472 166.722531,232.877879 C88.2401245,104.401809 371.717092,54.0419211 378.323966,53.6682739 C394.160668,52.7749849 365.695846,66.9381105 366.619654,70.9492502 C367.551709,74.9612147 391.059314,69.2162861 383.891557,77.7367618 C372.047023,91.8066818 369.778746,94.7628662 369.712759,104.771332 C369.605532,120.00261 348.440439,123.34069 345.735003,130.034171 C343.78016,134.86354 371.304678,133.994996 353.463643,144.935518 C348.127004,148.210086 347.318673,161.13102 343.664684,166.283722 C336.035023,177.040307 322.177908,175.60923 320.107589,180.455096 C318.029022,185.300137 332.661475,189.826795 331.201529,195.358093 C329.741583,200.890216 312.411942,196.860105 311.339665,213.646184 C310.300382,230.04212 294.975073,219.444727 291.956202,224.194088 C288.945579,228.943449 295.601943,236.881596 293.251182,242.14235 C290.57049,248.132253 272.0366,250.510233 275.880299,260.132679 Z" id="Path" fill="url(#linearGradient-4)" mask="url(#mask-3)"></path>
                    </g>
                    <path d="M380.014864,130.921686 C378.233235,136.323486 373.64719,174.859461 365.077225,204.250566 C359.369413,223.815492 342.6254,245.04987 342.6254,245.04987 C342.6254,245.04987 245.567862,136.362253 235.414226,132.204294 C216.195728,124.331309 253.74191,60.9176892 266.361782,49.4006126 C279.006398,37.8596159 293.053223,25.8979569 312.312963,17.8294871 C336.232981,7.80699924 356.754708,8.869378 372.137754,11.3537606 C381.301596,12.8343273 396.932091,19.6284375 406.20316,16.3868625 C435.047404,6.30498702 495.243368,-3.70347877 496.670321,1.4401501 C497.643618,4.94072112 463.569964,12.1917861 434.964921,25.6785526 C419.524136,32.9560121 413.032738,41.0723219 409.560211,48.174093 C401.237694,65.1886498 391.545963,96.0157802 380.014864,130.921686 Z" id="Path" fill="url(#linearGradient-5)"></path>
                    <g id="Clipped" transform="translate(229.302249, 0.000000)">
                        <mask id="mask-7" fill="white">
                            <use xlink:href="#path-6"></use>
                        </mask>
                        <g id="Path"></g>
                        <polygon id="Path" fill="url(#linearGradient-8)" mask="url(#mask-7)" points="411.168626 106.177664 221.722078 -44.3526638 -3.96742381 239.685187 185.470877 390.217989"></polygon>
                    </g>
                    <path d="M247.844388,266.747801 C248.702209,288.877943 350.420027,251.688087 358.775537,193.251481 C383.528632,20.1645758 34.2551166,77.2484634 26.5099794,79.4639521 C7.97608902,84.7708969 47.6420788,89.0962962 48.6153761,93.8951469 C49.5804252,98.6931727 19.8206225,101.696372 32.3167702,108.255406 C52.9457243,119.086226 57.0368724,121.447709 62.1755523,132.474013 C69.9784274,149.255143 95.8532891,144.524754 102.328191,150.841288 C106.996719,155.397639 75.1171073,165.382185 101.016714,170.372396 C108.770099,171.86616 116.226546,185.81318 122.998386,190.050323 C137.14419,198.897431 152.255044,191.808857 157.072041,196.334689 C161.897286,200.860522 147.462792,211.678144 151.925112,217.206968 C156.387433,222.735792 174.145985,211.393578 183.845965,229.507631 C193.323242,247.200197 205.48121,229.403703 211.320994,233.449485 C217.169026,237.496093 213.564526,248.910066 218.917662,253.784801 C225.004894,259.334245 247.374236,254.592308 247.844388,266.747801 Z" id="Path" fill="url(#linearGradient-9)"></path>
                    <g id="Clipped" transform="translate(21.445534, 68.460743)">
                        <mask id="mask-11" fill="white">
                            <use xlink:href="#path-10"></use>
                        </mask>
                        <g id="Path"></g>
                        <path d="M248.174319,325.617442 C255.597773,351.236607 147.537026,307.460498 118.098907,239.737976 C30.9228105,39.146348 375.775247,107.695348 383.776081,110.315827 C402.920344,116.590296 367.766165,121.319861 368.648731,126.869305 C369.531297,132.41875 398.227071,136.105732 389.079726,143.612493 C373.977121,156.008012 371.065478,158.713449 370.397367,171.445497 C369.391076,190.821537 343.664684,185.162391 340.010695,192.430777 C337.371244,197.67421 370.62007,209.458531 348.473432,215.055816 C341.841813,216.731042 340.109674,232.82674 335.399905,237.686628 C325.576201,247.831191 308.947663,239.516922 306.159744,244.724063 C303.371825,249.930378 320.759204,262.557674 318.680637,268.927822 C316.593821,275.298796 295.923626,262.040507 293.655348,282.946603 C291.444808,303.366051 273.579029,282.67441 269.661095,287.318193 C265.74316,291.9628 273.323332,305.204593 270.172488,310.81095 C266.592734,317.194296 244.099668,311.546697 248.174319,325.617442 Z" id="Path" fill="url(#linearGradient-12)" mask="url(#mask-11)"></path>
                    </g>
                </g>
                <g id="Group" transform="translate(9.222127, 379.792322)" fill="#222222">
                    <polygon id="Path" points="78.5993437 0.804693163 78.5993437 61.8766563 118.504534 61.8766563 118.504534 58.0186235 82.8176736 58.0186235 82.8176736 0.804693163"></polygon>
                    <polygon id="Path" points="218.853137 1.63697586 256.646766 1.63697586 256.638518 4.84308321 222.548367 4.84308321 222.474133 28.9734332 243.232239 28.9734332 243.223991 32.1795405 222.457636 32.1795405 222.366905 61.8766563 218.655178 61.8766563"></polygon>
                    <path d="M334.948024,31.7580533 C334.931214,36.1453147 334.271351,40.2653317 332.968123,44.1181044 C331.656646,47.9700523 329.776038,51.3188549 327.326298,54.156264 C324.86831,57.0019214 321.865935,59.2372059 318.310925,60.8621176 C314.764164,62.4952775 310.739002,63.3118574 306.243688,63.3118574 C301.740126,63.3118574 297.706716,62.4952775 294.143458,60.8621176 C290.571952,59.2372059 287.577825,57.0019214 285.136333,54.156264 C282.694842,51.3188549 280.838978,47.9700523 279.560495,44.1181044 C278.273763,40.2653317 277.646893,36.1453147 277.655061,31.7580533 C277.671638,27.3707919 278.331501,23.2499501 279.642977,19.3971774 C280.946206,15.5444047 282.826814,12.1972517 285.284803,9.35736814 C287.742791,6.5166597 290.753414,4.28055035 294.333168,2.64986494 C297.912923,1.01835469 301.946333,0.202599565 306.449895,0.202599565 C310.945209,0.202599565 314.970371,1.01835469 318.508884,2.64986494 C322.039149,4.28055035 325.033275,6.5166597 327.466518,9.35736814 C329.90801,12.1972517 331.763874,15.5444047 333.050606,19.3971774 C334.329089,23.2499501 334.964207,27.3707919 334.948024,31.7580533 Z M281.374758,31.7580533 C281.35862,35.6388702 281.911255,39.2945089 283.024773,42.7257943 C284.138291,46.1554301 285.754955,49.1495566 287.883012,51.7147724 C290.019317,54.27174 292.625774,56.3090657 295.710631,57.8267497 C298.803737,59.3444336 302.317506,60.1032756 306.251936,60.1032756 C310.186367,60.1032756 313.691887,59.3444336 316.760248,57.8267497 C319.836857,56.3090657 322.443315,54.27174 324.587868,51.7147724 C326.732421,49.1495566 328.37383,46.1554301 329.512092,42.7257943 C330.650355,39.2945089 331.219487,35.6388702 331.236076,31.7580533 C331.244232,27.8764116 330.699845,24.2207729 329.586327,20.7894875 C328.464561,17.358202 326.847897,14.3632507 324.71984,11.8038087 C322.591784,9.24436667 319.993575,7.20539127 316.933462,5.68688249 C313.873349,4.16837372 310.376077,3.40870691 306.441647,3.40870691 C302.498968,3.40870691 298.9852,4.16837372 295.883845,5.68688249 C292.782491,7.20539127 290.159537,9.24436667 288.014984,11.8038087 C285.870431,14.3632507 284.229022,17.358202 283.090759,20.7894875 C281.960745,24.2207729 281.383365,27.8764116 281.374758,31.7580533 Z" id="Shape"></path>
                    <path d="M361.21849,1.63697586 L386.359254,1.63697586 C389.006953,1.63697586 391.473189,1.90422021 393.782708,2.43870891 C396.083979,2.9731976 398.104808,3.84504105 399.845196,5.05423924 C401.585584,6.26343743 402.94655,7.85205661 403.919847,9.8209216 C404.901393,11.7897866 405.388042,14.2362271 405.379793,17.1610681 C405.363297,21.2109747 404.216786,24.6282381 401.923763,27.4128582 C399.638989,30.1966535 396.471649,31.9263183 392.413494,32.6010278 L392.413494,32.7701176 C395.16842,33.1074723 397.345966,33.839095 398.946133,34.9641607 C400.5463,36.0884015 401.742301,37.4666895 402.517639,39.0981998 C403.301226,40.7288852 403.804372,42.5294852 404.018827,44.4975254 C404.241531,46.4688649 404.348758,48.4319561 404.34051,50.4032956 C404.332262,51.5827999 404.332262,52.7375595 404.324013,53.8593259 C404.324013,54.9893405 404.373503,56.0451207 404.488979,57.0266663 C404.596207,58.0082119 404.777669,58.9237712 405.025117,59.7733443 C405.272566,60.6146691 405.627242,61.3157731 406.072649,61.8766563 L401.94026,61.8766563 C401.156673,60.4744483 400.727762,58.8247918 400.645279,56.9441834 C400.571045,55.0553268 400.538052,53.1004839 400.538052,51.0796547 C400.5463,49.0505772 400.472065,47.0462446 400.3071,45.0501603 C400.142134,43.049127 399.614244,41.2633739 398.72343,39.6887768 C397.824367,38.1133549 396.413911,36.8480684 394.475564,35.8920924 C392.537218,34.9361165 389.798788,34.4577161 386.252027,34.4577161 L364.822989,34.4577161 L364.732258,61.8766563 L361.020531,61.8766563 L361.21849,1.63697586 Z M386.260275,31.2516088 C388.454318,31.2516088 390.491644,30.9843644 392.3805,30.4498757 C394.269357,29.915387 395.88602,29.0856098 397.238739,27.961369 C398.591457,26.8363032 399.671982,25.4019269 400.463817,23.6582401 C401.255652,21.9145532 401.65157,19.8335115 401.659939,17.4142903 C401.668066,15.1649837 401.255652,13.238185 400.414327,11.6347189 C399.581251,10.0320776 398.459485,8.72390005 397.057277,7.71183581 C395.655069,6.69894674 394.021909,5.96814892 392.166045,5.51779271 C390.310182,5.06826132 388.371835,4.84308321 386.351006,4.84308321 L364.91372,4.84308321 L364.831237,31.2516088 L386.260275,31.2516088 Z" id="Shape"></path>
                    <path d="M450.497898,1.63697586 C451.075278,0.414580422 453.986921,0.411281109 454.547805,1.63697586 C459.150346,11.67761 478.14614,61.8766563 478.14614,61.8766563 L474.178716,61.8766563 L466.648035,42.5575294 L437.795543,42.5575294 L430.050406,61.8766563 L426.082982,61.8766563 C426.082982,61.8766563 445.755136,11.67761 450.497898,1.63697586 Z M466.648035,42.5575294 L452.675444,5.26539527 L452.510479,5.26539527 L437.795543,42.5575294 L466.648035,42.5575294 Z" id="Shape"></path>
                    <path d="M164.44652,1.63697586 C165.023899,0.414580422 167.935543,0.411281109 168.496426,1.63697586 C173.098968,11.67761 192.094762,61.8766563 192.094762,61.8766563 L188.127338,61.8766563 L180.596657,42.5575294 L151.744165,42.5575294 L143.999028,61.8766563 L140.031604,61.8766563 C140.031604,61.8766563 159.703757,11.67761 164.44652,1.63697586 Z M180.596657,42.5575294 L166.624066,5.26539527 L166.459101,5.26539527 L151.744165,42.5575294 L180.596657,42.5575294 Z" id="Shape-Copy"></path>
                    <path d="M25.1430371,1.63697586 C25.7204169,0.414580422 28.6320605,0.411281109 29.1929437,1.63697586 C33.7954853,11.67761 52.7912795,61.8766563 52.7912795,61.8766563 L48.8238557,61.8766563 L41.2931739,42.5575294 L12.4406823,42.5575294 L4.69554519,61.8766563 L0.728121388,61.8766563 C0.728121388,61.8766563 20.4002748,11.67761 25.1430371,1.63697586 Z M41.2931739,42.5575294 L27.3205837,5.26539527 L27.155618,5.26539527 L12.4406823,42.5575294 L41.2931739,42.5575294 Z" id="Shape-Copy-2"></path>
                </g>
            </g>
        </g>
    </g>
</svg>