<?xml version="1.0" standalone="no"?>
<!DOCTYPE svg PUBLIC "-//W3C//DTD SVG 20010904//EN"
 "http://www.w3.org/TR/2001/REC-SVG-20010904/DTD/svg10.dtd">
<svg version="1.0" xmlns="http://www.w3.org/2000/svg"
 width="600.000000pt" height="600.000000pt" viewBox="0 0 600.000000 600.000000"
 preserveAspectRatio="xMidYMid meet">
<metadata>
Created by potrace 1.11, written by Peter Selinger 2001-2013
</metadata>
<g transform="translate(0.000000,600.000000) scale(0.100000,-0.100000)"
fill="#000000" stroke="none">
<path d="M5710 4768 c-219 -27 -511 -88 -725 -149 -77 -23 -158 -42 -180 -43
-33 -2 -112 10 -185 29 -8 2 -49 13 -91 24 -162 42 -368 44 -564 6 -123 -24
-328 -113 -452 -195 -210 -141 -351 -274 -451 -427 -111 -170 -91 -153 -167
-137 -37 8 -85 16 -108 19 -23 2 -78 9 -122 15 -359 47 -943 57 -1400 25 -161
-11 -223 -16 -250 -19 -16 -2 -65 -7 -107 -11 -43 -3 -92 -8 -110 -11 -18 -2
-55 -6 -83 -9 -101 -11 -141 -16 -165 -20 -14 -3 -38 -7 -55 -9 -172 -25 -235
-43 -235 -66 0 -17 109 -60 213 -84 55 -13 107 -41 107 -57 0 -16 -30 -32
-132 -69 -31 -12 -67 -29 -80 -39 -19 -16 -20 -21 -9 -35 11 -13 129 -82 216
-126 46 -23 138 -120 164 -173 39 -82 90 -123 190 -156 35 -11 84 -23 110 -27
61 -7 164 -33 174 -43 4 -4 -36 -27 -90 -51 -350 -153 -911 -440 -1059 -541
-46 -31 -62 -58 -42 -70 7 -4 49 -6 93 -3 44 3 116 6 160 7 71 2 80 0 83 -17
2 -11 -6 -27 -21 -40 -91 -79 -147 -138 -147 -157 0 -14 29 -21 180 -39 141
-18 209 -42 282 -101 35 -28 77 -58 93 -67 45 -24 180 -25 295 -1 112 23 173
22 178 -3 2 -10 -13 -45 -33 -79 -46 -78 -54 -114 -29 -127 11 -5 56 -8 102
-5 l84 4 126 -62 c125 -62 128 -63 212 -63 75 -1 96 3 180 36 133 52 144 54
169 29 12 -12 18 -29 16 -43 -3 -13 -8 -57 -11 -99 -6 -63 -4 -78 10 -92 24
-23 40 -22 122 13 134 56 189 53 291 -17 96 -65 162 -68 218 -9 45 49 97 85
112 79 30 -10 63 -45 93 -98 59 -104 87 -113 231 -81 116 27 143 29 183 12 20
-8 36 -19 36 -24 0 -23 54 -62 86 -62 122 0 406 221 567 441 184 252 309 451
360 573 58 137 111 370 186 806 27 156 44 214 150 530 132 393 196 565 246
655 95 172 264 267 779 439 217 73 259 91 253 109 -5 14 -150 18 -247 5z"/>
</g>
</svg>
